HIERARCHY
ROOT Hips
{
  OFFSET 0 0 0
  CHANNELS 6 Xposition Yposition Zposition Zrotation Yrotation Xrotation
  JOINT LeftThigh
  {
    OFFSET 8.759831 0 -6.164326
    CHANNELS 3 Zrotation Yrotation Xrotation
    JOINT LeftLeg
    {
      OFFSET 0 0 -44.123596
      CHANNELS 3 Zrotation Yrotation Xrotation
      JOINT LeftFoot
      {
        OFFSET 0 0 -40.997191
        CHANNELS 3 Zrotation Yrotation Xrotation
        End Site
        {
          OFFSET 0 -13.883989 -5.217556
        }
      }
    }
  }
  JOINT RightThigh
  {
    OFFSET -8.759831 0 -6.164326
    CHANNELS 3 Zrotation Yrotation Xrotation
    JOINT RightLeg
    {
      OFFSET 0 0 -44.123596
      CHANNELS 3 Zrotation Yrotation Xrotation
      JOINT RightFoot
      {
        OFFSET 0 0 -40.997191
        CHANNELS 3 Zrotation Yrotation Xrotation
        End Site
        {
          OFFSET 0 -13.883989 -5.217556
        }
      }
    }
  }
  JOINT SpineLow
  {
    OFFSET 0 0 4.91573
    CHANNELS 3 Zrotation Yrotation Xrotation
    JOINT SpineMid
    {
      OFFSET 0 0 13.436657
      CHANNELS 3 Zrotation Yrotation Xrotation
      JOINT Chest
      {
        OFFSET 0 0 13.436657
        CHANNELS 3 Zrotation Yrotation Xrotation
        JOINT LeftShoulder
        {
          OFFSET 7.865169 1.474719 9.831461
          CHANNELS 3 Zrotation Yrotation Xrotation
          JOINT LeftArm
          {
            OFFSET 9.536517 0 4.424157
            CHANNELS 3 Zrotation Yrotation Xrotation
            JOINT LeftForearm
            {
              OFFSET 0 0 26.845787
              CHANNELS 3 Zrotation Yrotation Xrotation
              JOINT LeftHand
              {
                OFFSET 0 0 26.247051
                CHANNELS 3 Zrotation Yrotation Xrotation
              }
            }
          }
        }
        JOINT RightShoulder
        {
          OFFSET -7.865169 1.474719 9.831461
          CHANNELS 3 Zrotation Yrotation Xrotation
          JOINT RightArm
          {
            OFFSET -9.536517 0 4.424157
            CHANNELS 3 Zrotation Yrotation Xrotation
            JOINT RightForearm
            {
              OFFSET 0 0 -26.845787
              CHANNELS 3 Zrotation Yrotation Xrotation
              JOINT RightHand
              {
                OFFSET 0 0 -26.247051
                CHANNELS 3 Zrotation Yrotation Xrotation
              }
            }
          }
        }
        JOINT Neck
        {
          OFFSET 0 0 15.730337
          CHANNELS 3 Zrotation Yrotation Xrotation
          JOINT Head
          {
            OFFSET 0 0 11.797753
            CHANNELS 3 Zrotation Yrotation Xrotation
            End Site
            {
              OFFSET 0 0 7.747191
            }
          }
        }
      }
    }
  }
}
MOTION
Frames: 13
Frame Time: 0.01
99.898384  79.551323  -71.795868  -6.789388  -42.711291  -94.444865  8.917148  -27.653464  1.978754  15.245494  2.973099  49.493248  -22.978163  0.045053  -31.931909  -22.356921  19.373592  -40.419422  -5.762553  -7.119785  50.070079  19.926583  -10.800008  1.074223  3.33426  -0.510563  0.79246  9.097441  -1.501472  2.091403  9.097442  -1.501472  2.091403  11.955844  1.971729  23.493861  110.956152  33.570047  112.059622  15.760497  23.859445  123.837317  45.390383  0.659228  11.430583  14.797635  -15.684995  20.866955  48.466061  66.721472  22.348327  -25.216107  -0.394365  -71.936686  74.802749  -3.330738  0.062909  2.921366  -2.131877  7.657892  2.21791  -1.562637  5.753104  
99.718079  79.2733  -71.805588  -7.194129  -43.126851  -93.707603  8.578376  -27.815642  1.857632  15.833261  2.556021  49.663494  -22.748544  0.068356  -32.255882  -22.203157  19.111027  -41.203922  -6.355467  -7.331154  50.956476  20.205453  -10.260032  0.866836  3.294821  -0.555954  0.926438  8.984935  -1.642212  2.451731  8.984935  -1.642212  2.451731  12.053254  1.838298  22.996401  111.736572  33.521741  112.401172  18.624984  25.709574  124.468079  43.318023  0.852987  10.421543  14.559567  -14.973856  21.224337  45.624756  67.964657  17.509256  -20.204302  4.097853  -56.191795  81.314839  -7.178468  4.676934  2.862804  -2.209223  7.548756  2.174531  -1.621895  5.671364  
99.199615  79.237076  -72.307869  -7.544133  -43.677581  -92.924998  7.84838  -27.948981  1.951358  17.070216  1.967154  49.748277  -22.922103  -0.018867  -32.553233  -20.673671  18.885388  -41.642925  -7.790751  -6.789269  51.792009  20.752081  -9.601965  0.56317  3.260326  -0.558936  0.876958  8.891831  -1.642459  2.317242  8.89183  -1.642459  2.317242  12.38332  1.10549  23.404391  111.363519  32.629281  112.671747  20.276948  28.018777  125.080563  40.798203  1.177053  9.384301  14.205771  -14.517956  21.322807  39.158203  69.741377  11.629734  -10.887538  5.012402  -45.484423  84.105042  -9.651937  4.237656  2.73066  -2.574479  8.008546  2.081832  -1.895512  6.017047  
98.910179  79.058983  -72.242638  -7.947268  -44.287727  -91.993623  6.941058  -28.196085  2.110917  18.56335  1.538594  49.782004  -22.938563  0.074055  -32.742121  -20.633846  18.287112  -42.497593  -8.009772  -6.877686  52.453549  21.101944  -9.126499  0.23896  3.286752  -0.606349  0.797528  8.96483  -1.761933  2.093478  8.96483  -1.761933  2.093478  12.407231  0.910029  23.746486  110.453514  31.44416  112.695248  21.143382  30.178911  125.788484  39.010712  1.578687  8.469636  13.762222  -13.548021  20.988985  36.040889  69.496526  7.970307  -1.081126  7.655883  -37.072718  75.923262  -7.601215  2.073367  2.390474  -2.670698  8.249112  1.829  -1.971223  6.196275  
98.421837  79.021759  -72.338051  -8.103738  -44.674667  -90.906641  5.856595  -28.255674  1.935506  20.029324  1.413531  49.8726  -22.674984  0.01487  -32.838302  -21.068863  17.512157  -43.659873  -8.166483  -6.908351  53.062597  21.846334  -8.38992  -0.092749  3.286612  -0.62695  0.661244  8.96774  -1.799685  1.718892  8.967741  -1.799685  1.718892  12.292761  0.949937  24.114043  109.886309  30.715279  112.695101  21.410079  31.404709  126.373815  38.506622  1.691848  7.773233  14.281458  -13.184667  19.947953  32.612701  69.62156  5.599646  5.430819  5.182119  -34.905203  64.072775  -7.047722  9.758027  2.131935  -2.585119  8.230857  1.633871  -1.910569  6.181204  
98.072647  78.991096  -72.387245  -8.277869  -44.845536  -90.288103  4.406894  -28.431417  2.174365  21.425735  1.614377  50.115728  -22.159462  -0.160978  -32.940017  -21.579887  16.739238  -44.253385  -7.761158  -7.093959  53.461627  21.872887  -7.952456  -0.524256  3.29954  -0.66994  0.624604  9.00327  -1.912282  1.612752  9.00327  -1.912282  1.612752  11.967666  1.209793  24.319597  109.827478  30.872441  112.484433  21.245001  31.352416  126.743668  38.974042  1.41497  7.566445  15.61437  -14.441408  18.889623  30.82057  70.289482  6.015248  1.193842  -2.370329  -37.484898  66.054534  -5.871003  20.445334  1.864145  -2.519762  7.976462  1.431081  -1.865892  5.989135  
97.727867  78.974266  -72.034279  -8.141368  -44.902932  -90.42051  2.996956  -28.513056  2.725762  22.51454  1.940791  50.465428  -21.706363  -0.510427  -32.987236  -23.474087  15.951337  -44.554966  -6.313819  -7.854145  53.833832  22.14176  -7.343826  -1.019166  3.282413  -0.727394  0.704242  8.952795  -2.079342  1.822829  8.952796  -2.079342  1.82283  12.076444  1.519479  24.213535  110.285308  31.598571  112.31682  21.191797  30.144789  126.970317  39.924202  0.781298  7.747231  16.8544  -15.676078  17.705347  29.454883  70.704374  6.429873  -7.362009  0.523898  -34.027918  71.61245  -3.885514  16.282545  1.733253  -2.413544  7.659709  1.330263  -1.788787  5.750834  
97.39566  79.032188  -72.268784  -7.570718  -44.986384  -91.054642  2.189835  -28.332785  3.145117  23.159477  2.093308  50.799534  -21.545932  -0.625966  -33.031438  -23.657437  15.92413  -44.60076  -6.005359  -7.826465  54.239298  22.1446  -6.983358  -1.488801  3.208626  -0.738363  0.809968  8.747346  -2.121257  2.112288  8.747347  -2.121257  2.112288  12.732386  1.586352  23.861986  111.228287  32.455231  112.34491  21.497591  28.443257  127.219143  40.761903  0.016191  7.862999  16.973726  -15.359498  17.502155  31.945646  69.77155  8.448837  -14.993418  3.281888  -31.797094  76.132978  -1.69538  13.344061  1.85963  -2.302671  7.508922  1.423097  -1.704481  5.638003  
97.097252  79.087341  -72.495773  -6.860275  -45.135461  -91.601479  2.260269  -28.029832  3.111678  23.347131  1.949424  50.971296  -21.849994  -0.72463  -33.069641  -23.721982  15.91758  -44.873266  -5.811152  -7.619322  54.654226  22.042031  -6.706477  -1.956009  3.116344  -0.718456  0.880088  8.49332  -2.073083  2.309243  8.493319  -2.073083  2.309243  13.543144  1.566687  23.37599  112.20049  33.180399  112.39654  22.211108  27.083373  127.646688  41.316558  -0.5895  7.619611  16.919798  -15.069926  18.592188  39.764586  69.952905  15.683541  -21.507963  3.213235  -32.294542  78.306056  -0.233251  13.000402  2.12616  -2.163685  7.528898  1.62139  -1.596883  5.653611  
96.799507  79.118362  -72.719879  -6.157434  -45.332094  -91.989921  3.100997  -27.740617  2.770953  23.108976  1.621478  50.956023  -22.465727  -0.550027  -33.120269  -23.58678  15.954626  -45.313082  -5.745284  -7.290049  55.112743  22.167112  -6.46245  -2.377365  3.023811  -0.661649  0.869848  8.242363  -1.913694  2.291304  8.242363  -1.913694  2.291304  14.363059  1.092748  23.137499  112.707486  33.438637  112.475058  23.052817  26.406155  128.335725  41.648252  -0.896933  6.794893  17.19231  -15.059546  20.207077  42.748384  70.361562  17.819874  -23.80359  3.152366  -33.084695  79.149253  -0.305619  13.163401  2.442671  -2.157415  7.816388  1.859753  -1.58716  5.870333  
96.454781  79.1269  -72.876511  -5.440868  -45.74012  -92.38391  4.537634  -27.453401  2.426346  22.361917  1.356471  50.606793  -23.121508  -0.25598  -33.10816  -23.180828  16.071248  -45.776824  -5.608217  -7.055132  55.629026  22.370808  -6.189829  -2.839099  3.052454  -0.55609  0.820602  8.32513  -1.620502  2.169206  8.32513  -1.620502  2.169206  14.560389  0.216401  23.068691  112.61864  33.222501  112.523671  23.758955  26.372523  129.145229  41.763013  -0.976793  5.558575  17.542243  -15.615114  21.190779  43.010289  70.322482  17.731403  -23.188679  3.811067  -34.097595  78.855919  -1.357872  13.451606  2.421377  -2.359168  8.144507  1.847622  -1.737508  6.116979  
96.20092  79.079163  -72.936226  -4.900072  -46.086447  -92.561325  6.139768  -27.297242  2.043882  21.551936  1.246595  50.242629  -23.647904  -0.046985  -33.085203  -22.885152  16.145842  -46.279643  -5.558387  -6.84443  56.102294  22.46605  -6.118928  -3.300624  3.1125  -0.455155  0.732521  8.494081  -1.335791  1.940188  8.494081  -1.335791  1.940188  14.408111  -0.544827  23.141797  112.292885  32.775727  112.512326  24.252487  26.609166  129.775817  41.757662  -0.989045  4.348319  17.271355  -15.897854  21.623828  40.398805  70.183374  14.665464  -19.886246  4.345853  -34.816521  76.889221  -2.153279  14.395117  2.206715  -2.609683  8.413714  1.691082  -1.927349  6.318717  
95.936829  79.012604  -72.829117  -4.528432  -46.376615  -92.631932  7.455466  -27.289266  1.793299  20.802911  1.442196  49.856052  -23.887579  0.080025  -32.993869  -22.697408  16.207777  -46.673309  -5.255698  -6.905626  56.53304  22.460754  -6.142819  -3.861492  3.191631  -0.367679  0.643668  8.714224  -1.087765  1.707557  8.714224  -1.087765  1.707557  13.989407  -1.088373  23.308638  112.0568  32.404397  112.539432  24.474347  26.803183  130.086644  41.622245  -1.010351  3.632166  16.670315  -15.974845  21.386006  45.488423  69.605686  17.750801  -18.430698  4.26452  -33.677809  74.579711  -2.308917  15.542698  1.87665  -2.854591  8.592588  1.447704  -2.115082  6.451947  
